<svg xmlns="http://www.w3.org/2000/svg" width="2849" height="2900" viewBox="0 0 2849 2900" version="1.1"><path d="" stroke="none" fill="#28448c" fill-rule="evenodd"/><path d="M 1451.500 2.192 C 1442.830 8.343, 1434.515 15.133, 1415 31.998 C 1403.175 42.218, 1388.100 54.927, 1381.500 60.241 C 1374.900 65.555, 1366.653 72.512, 1363.172 75.702 L 1356.845 81.500 1357.919 122.500 C 1358.510 145.050, 1359.224 168.450, 1359.505 174.500 C 1359.785 180.550, 1360.456 198.775, 1360.995 215 C 1361.906 242.392, 1362.255 250.571, 1363.537 274.500 C 1363.802 279.450, 1364.455 293.400, 1364.988 305.500 C 1365.906 326.340, 1366.257 332.974, 1367.500 353 C 1367.790 357.675, 1368.704 375.225, 1369.531 392 C 1370.359 408.775, 1371.365 428.575, 1371.768 436 C 1372.170 443.425, 1372.500 460.300, 1372.500 473.500 L 1372.500 497.500 1355.500 497.384 C 1346.150 497.319, 1327.475 496.467, 1314 495.489 C 1294.522 494.076, 1283.043 493.836, 1258 494.316 C 1240.675 494.649, 1225.375 495.126, 1224 495.378 C 1222.625 495.629, 1217 496.122, 1211.500 496.474 C 1177.694 498.633, 1131.807 506.237, 1102.059 514.609 C 1065.578 524.876, 1051.681 533.087, 1024.500 560.434 C 1003.494 581.568, 989.786 600.770, 984.833 616 C 983.068 621.426, 982.642 625.723, 982.255 642 C 981.675 666.391, 982.997 675.387, 988.911 687.309 C 1003.663 717.042, 1021.706 731.652, 1051.500 737.988 C 1059.517 739.693, 1067.251 740.292, 1090.500 741.012 C 1121.867 741.982, 1128.953 742.964, 1138.626 747.682 C 1148.657 752.574, 1156.552 761.794, 1169.514 783.754 C 1175.626 794.108, 1179.214 796.253, 1189.664 795.798 L 1196.500 795.500 1197.290 775.500 C 1197.724 764.500, 1197.841 749.200, 1197.549 741.500 C 1196.929 725.128, 1196.007 722.677, 1185.852 710.400 C 1177.991 700.896, 1167.680 692.094, 1157.500 686.194 C 1144.023 678.384, 1132 664.349, 1132 656.428 C 1132 654.269, 1133.329 652.318, 1137.459 648.412 C 1144.359 641.887, 1161.146 630.426, 1171.717 625.024 C 1186.829 617.300, 1206.878 614.925, 1256.747 614.950 C 1299.362 614.972, 1347.656 617.984, 1385.037 622.953 C 1389.142 623.498, 1399.025 624.437, 1407 625.038 C 1421.158 626.106, 1432.669 627.372, 1456 630.429 C 1462.325 631.257, 1477.625 632.635, 1490 633.490 C 1516.623 635.329, 1539.154 637.786, 1540.370 638.983 C 1542.150 640.736, 1542.988 649.090, 1543.533 670.500 C 1544.881 723.484, 1546.524 748.985, 1549.089 756.767 C 1550.510 761.076, 1554.989 763.388, 1562 763.432 C 1567.054 763.464, 1568.676 762.808, 1582 755.342 C 1603.684 743.193, 1628.524 730.244, 1668.531 710.234 C 1737.810 675.585, 1765.772 662.869, 1791 654.542 C 1800.625 651.365, 1809.244 648.031, 1810.154 647.133 C 1811.064 646.235, 1821.436 631.100, 1833.203 613.500 C 1867.684 561.930, 1872.277 549.873, 1864.099 532.398 L 1861.222 526.251 1750.361 525.671 C 1689.388 525.353, 1633.875 524.639, 1627 524.086 C 1620.125 523.532, 1603.025 521.953, 1589 520.577 C 1574.975 519.201, 1558.550 517.611, 1552.500 517.043 C 1546.450 516.476, 1529.350 514.871, 1514.500 513.478 C 1499.650 512.084, 1480.075 510.286, 1471 509.482 C 1403.063 503.461, 1384 500.742, 1384 497.070 C 1384 495.038, 1392.404 494.504, 1422.500 494.620 C 1453.554 494.740, 1471.191 495.730, 1493.359 498.597 C 1499.882 499.440, 1505.878 499.877, 1506.685 499.567 C 1508.196 498.988, 1508.195 498.883, 1506.454 473.500 C 1506.190 469.650, 1505.537 459.075, 1505.002 450 C 1504.101 434.720, 1503.658 428.687, 1502.471 415.500 C 1501.352 403.073, 1499.013 359.437, 1498.933 349.500 C 1498.803 333.276, 1498.935 330.651, 1499.963 329.026 C 1501.407 326.742, 1504.358 330.024, 1521.975 353.500 C 1543.801 382.587, 1554.523 394.165, 1564.207 399.105 C 1569.248 401.677, 1572.405 400.987, 1575.098 396.723 C 1576.870 393.918, 1577.056 392.462, 1576.533 385.500 C 1575.966 377.951, 1571.958 352.235, 1569.987 343.500 C 1569.491 341.300, 1568.132 335, 1566.969 329.500 C 1559.641 294.864, 1548.126 250.901, 1536.848 214.500 C 1520.832 162.809, 1481.145 48.364, 1467.492 14.500 C 1461.930 0.705, 1457.932 -2.372, 1451.500 2.192 M 1026 121.088 C 1001.880 122.168, 979.555 125.018, 944.500 131.492 C 927.794 134.577, 878.061 148.156, 856 155.655 C 804.301 173.230, 715.314 211.248, 692.293 225.596 C 686.343 229.305, 685 230.610, 685 232.682 C 685 234.163, 687.925 239.604, 692.008 245.721 C 699.634 257.143, 700.762 259.926, 699.374 263.890 C 698.384 266.717, 696.465 267.848, 682 274.129 C 676.775 276.398, 652.475 288.037, 628 299.994 C 603.525 311.950, 580.289 323.137, 576.364 324.853 C 564.388 330.088, 554.907 335.634, 499.500 369.810 C 460.095 394.117, 445.437 403.806, 424.708 419.247 C 378.926 453.352, 330.215 495.683, 331.152 500.550 C 331.579 502.766, 334.043 503.547, 356.281 508.514 C 372.625 512.164, 387.411 516.272, 389.784 517.821 C 391.947 519.234, 390.200 521.469, 383.724 525.573 C 370.646 533.859, 346.218 554.570, 313 585.534 C 250.092 644.174, 189.859 714.372, 128.947 800.034 C 114.330 820.590, 109.942 827.685, 110.671 829.585 C 111.653 832.144, 118.860 831.135, 143.953 824.927 C 178.930 816.274, 192 813.720, 192 815.540 C 192 817.067, 187.377 824.668, 180.468 834.500 C 146.769 882.456, 105.403 952.510, 66.506 1027.500 C 62.227 1035.750, 56.360 1047, 53.468 1052.500 C 45.481 1067.690, 5.536 1147.678, 2.540 1154.479 C 0.204 1159.785, 0.082 1160.587, 1.457 1161.592 C 3.194 1162.863, 18.517 1164.352, 22.150 1163.604 C 23.443 1163.338, 32.825 1162.851, 43 1162.522 C 63.903 1161.845, 88.735 1160.307, 92.792 1159.436 C 97.597 1158.405, 102.563 1155.929, 103.801 1153.948 C 104.464 1152.885, 106.995 1142.450, 109.424 1130.758 C 119.474 1082.393, 131.068 1037.821, 143.175 1001 C 156.651 960.017, 182.464 896.312, 198.484 864.500 C 206.740 848.105, 239.282 788.660, 264.176 744.500 C 273.787 727.450, 284.278 708.550, 287.489 702.500 C 300.369 678.234, 336.568 627.642, 371.919 584.500 C 430.779 512.666, 499.175 442.918, 552.500 400.348 C 603.593 359.561, 683.031 305.436, 737.500 274.299 C 781.284 249.270, 881.028 198.585, 895.883 193.817 C 899.522 192.648, 911.950 187.435, 923.500 182.232 C 980.338 156.625, 1034.068 136.240, 1070.304 126.534 C 1081.540 123.524, 1085.159 122.067, 1084.410 120.854 C 1083.786 119.844, 1050.803 119.977, 1026 121.088 M 1766.029 121.875 C 1763.627 123.535, 1762.274 123.057, 1792.500 131.210 C 1815.816 137.498, 1888.246 166.596, 1962.500 199.505 C 1989.481 211.462, 2013.058 223.193, 2044.500 240.304 C 2057.700 247.487, 2074.893 256.409, 2082.706 260.130 C 2103.240 269.908, 2131.786 287.385, 2185.987 323.363 C 2221.364 346.846, 2231.308 353.825, 2261.652 376.473 C 2274.936 386.388, 2287.761 395.726, 2290.152 397.224 C 2305.048 406.557, 2390.199 488.811, 2426.054 528.500 C 2482.847 591.367, 2518.573 638.654, 2553.738 697.500 C 2585.540 750.719, 2622.676 817.503, 2641.875 856 C 2689.548 951.593, 2716.800 1031.582, 2738.085 1138.390 C 2741.312 1154.581, 2743.026 1158.654, 2746.944 1159.438 C 2749.230 1159.896, 2767.285 1160.940, 2801 1162.564 C 2841.047 1164.494, 2847.569 1164.744, 2848.181 1164.376 C 2849.949 1163.314, 2761.951 993.066, 2749.753 973.949 C 2747.840 970.952, 2742.093 960.850, 2736.981 951.500 C 2731.869 942.150, 2722.858 926.400, 2716.958 916.500 C 2711.057 906.600, 2705.525 896.811, 2704.664 894.747 C 2701.506 887.172, 2668.424 837.836, 2657.332 824.158 C 2652.993 818.808, 2651.774 815, 2654.401 815 C 2655.171 815, 2661.102 815.906, 2667.580 817.014 C 2678.400 818.863, 2686.505 820.621, 2716.070 827.530 C 2727.348 830.165, 2731.619 830.527, 2733.963 829.044 C 2735.240 828.236, 2735.224 827.697, 2733.832 824.809 C 2729.935 816.725, 2691.786 764.976, 2663.580 729.515 C 2596.968 645.767, 2521.700 568.947, 2471.111 533.079 C 2458.800 524.350, 2454 520.251, 2454 518.467 C 2454 517.715, 2456.485 516.417, 2459.750 515.465 C 2467.755 513.132, 2503.384 505.310, 2509.750 504.489 C 2513.700 503.980, 2514.999 503.402, 2514.996 502.156 C 2514.984 496.575, 2502.048 483.567, 2474.499 461.431 C 2451.572 443.009, 2417.248 416.595, 2399 403.331 C 2388.216 395.492, 2346.649 369.347, 2320.685 354.072 C 2286.950 334.224, 2201.016 290.374, 2164 274.118 C 2153.550 269.529, 2145 263.828, 2145 261.450 C 2145 259.029, 2148.827 252.067, 2154.073 244.944 C 2160.816 235.789, 2161.506 233.661, 2158.718 230.609 C 2155.548 227.138, 2138.250 217.214, 2118.500 207.535 C 2059.284 178.515, 1965.916 145.800, 1904.280 132.473 C 1882.378 127.738, 1870.435 125.924, 1848 123.925 C 1822.240 121.629, 1768.336 120.281, 1766.029 121.875 M 1389.303 641.197 C 1385.855 642.863, 1384.998 647.205, 1385.021 662.899 C 1385.041 677.065, 1386.374 715.210, 1387.488 733.500 C 1387.789 738.450, 1388.700 758.250, 1389.512 777.500 C 1390.323 796.750, 1391.199 815.650, 1391.457 819.500 C 1391.715 823.350, 1392.174 832.575, 1392.478 840 C 1393.622 867.985, 1395.013 897.746, 1395.492 904.500 C 1395.765 908.350, 1396.439 921.850, 1396.990 934.500 C 1397.916 955.755, 1398.270 962.291, 1399.534 981.500 C 1399.787 985.350, 1400.673 1001.550, 1401.501 1017.500 C 1402.330 1033.450, 1403.204 1048.300, 1403.444 1050.500 C 1403.683 1052.700, 1404.153 1059.900, 1404.487 1066.500 C 1405.654 1089.514, 1409.117 1132.528, 1410.108 1136.303 C 1411.783 1142.686, 1413.890 1144, 1422.451 1144 C 1433.511 1144, 1438.267 1142.661, 1463.532 1132.438 C 1505.544 1115.438, 1529.629 1104.102, 1535.503 1098.562 L 1539.255 1095.023 1538.620 1080.762 C 1538.270 1072.918, 1537.548 1047.825, 1537.015 1025 C 1536.099 985.758, 1535.554 968.660, 1534.481 945.500 C 1534.226 940, 1533.571 922.900, 1533.025 907.500 C 1532.071 880.616, 1531.495 867.806, 1530.460 850.500 C 1530.197 846.100, 1529.544 832.375, 1529.010 820 C 1527.514 785.351, 1526.957 773.989, 1526.454 767.877 C 1526.200 764.784, 1525.559 746.559, 1525.030 727.377 C 1523.798 682.725, 1520.926 652.843, 1517.601 650.084 C 1515.821 648.606, 1493.530 646.290, 1469 645.033 C 1457.725 644.455, 1445.575 643.749, 1442 643.464 C 1419.935 641.703, 1396.141 640.023, 1394 640.075 C 1392.625 640.108, 1390.511 640.613, 1389.303 641.197 M 1347.999 732.298 C 1331.648 739.832, 1310.841 751.972, 1286 768.474 C 1256.570 788.025, 1248.771 794.036, 1229.313 812.165 C 1206.777 833.163, 1156.509 884.031, 1140.539 902 C 1084.595 964.948, 1038.832 1028.923, 1009.993 1084.500 C 1002.963 1098.048, 993.521 1114.886, 990.182 1119.829 C 988.876 1121.762, 894.086 1122.887, 715.500 1123.090 C 635.200 1123.182, 563.200 1123.536, 555.500 1123.878 L 541.500 1124.500 541.178 1135 C 540.768 1148.403, 542.966 1224.286, 544.618 1253.750 L 545.192 1264 548.846 1264.038 C 574.289 1264.304, 631.329 1265.996, 631.833 1266.500 C 632.761 1267.427, 632.666 1447.393, 631.722 1476.500 C 631.294 1489.700, 630.520 1510.175, 630.002 1522 C 629.484 1533.825, 629.047 1546.708, 629.030 1550.630 L 629 1557.759 616.250 1558.403 C 609.238 1558.757, 598.550 1559.280, 592.500 1559.566 C 573.442 1560.467, 553.582 1562.017, 550.484 1562.846 L 547.500 1563.644 547.242 1625.960 L 546.985 1688.277 607.742 1687.608 C 641.159 1687.240, 675.925 1686.741, 685 1686.498 C 694.075 1686.255, 720.400 1685.806, 743.500 1685.499 C 798.479 1684.768, 888.617 1683.018, 897.500 1682.509 C 914.641 1681.527, 967.916 1680.933, 971.856 1681.680 C 976.055 1682.476, 976.293 1682.722, 978.470 1688.503 C 981.855 1697.488, 996.668 1726.625, 1007.531 1745.662 C 1049.172 1818.639, 1115.695 1894.989, 1178.703 1942.120 C 1225.786 1977.338, 1296.078 2008.859, 1370 2027.904 C 1438.428 2045.534, 1509.063 2049.113, 1576.500 2038.367 C 1652.223 2026.302, 1736.639 1993.233, 1796.500 1952.185 C 1868.236 1902.994, 1931.445 1833.419, 1985.179 1744.500 C 2005.625 1710.667, 2022.572 1676.272, 2025.443 1662.786 C 2027.013 1655.405, 2045.027 1654.293, 2200.500 1651.977 C 2236.250 1651.444, 2274.500 1650.763, 2285.500 1650.463 C 2329.382 1649.267, 2363.705 1647.903, 2367.500 1647.203 L 2371.500 1646.466 2371.757 1581.040 C 2371.899 1545.056, 2371.655 1515.255, 2371.215 1514.815 C 2370.775 1514.375, 2359.409 1513.554, 2345.958 1512.990 C 2321.433 1511.962, 2296.912 1509.677, 2292.536 1508.014 C 2289.706 1506.938, 2289.386 1505.244, 2287.998 1484 C 2287.441 1475.475, 2286.761 1465.350, 2286.486 1461.500 C 2285.895 1453.194, 2283.390 1374.793, 2282.381 1333 C 2281.444 1294.214, 2281.405 1224.463, 2282.316 1219.895 L 2283.036 1216.290 2290.509 1215.659 C 2297.239 1215.090, 2318.431 1215.781, 2349.750 1217.590 L 2361 1218.240 2361 1152.120 L 2361 1086 2178.750 1085.945 C 2078.512 1085.915, 1987.193 1085.520, 1975.817 1085.067 L 1955.134 1084.242 1948.256 1079.670 C 1937.784 1072.708, 1916.621 1062.304, 1906 1058.896 C 1895.008 1055.369, 1877.289 1052.294, 1843.500 1048.051 C 1794.486 1041.896, 1785.271 1042.066, 1708 1050.553 C 1670.609 1054.660, 1647.463 1062.186, 1596.067 1086.947 C 1552.945 1107.722, 1485.570 1137.369, 1447 1152.543 C 1401.109 1170.596, 1350.326 1185.028, 1331.567 1185.348 L 1322.634 1185.500 1320.580 1181.500 C 1318.050 1176.574, 1290.574 1148.879, 1279 1139.589 C 1260.787 1124.969, 1238.479 1117.749, 1202.670 1114.884 C 1189.827 1113.857, 1160.946 1114.202, 1146.500 1115.556 C 1143.750 1115.814, 1135.425 1116.456, 1128 1116.982 C 1120.575 1117.508, 1112.362 1118.239, 1109.750 1118.605 C 1105.197 1119.244, 1105 1119.171, 1105 1116.827 C 1105 1113.711, 1110.247 1104.964, 1118.993 1093.500 C 1158.982 1041.081, 1294.041 910.993, 1357 864.253 C 1365.525 857.924, 1373.510 851.565, 1374.745 850.123 C 1377.483 846.924, 1377.602 842.922, 1375.539 823.357 C 1374.736 815.736, 1373.600 803.200, 1373.016 795.500 C 1370.206 758.477, 1367.313 731.503, 1365.856 728.750 C 1364.331 725.868, 1360.153 726.698, 1347.999 732.298 M 1778.500 1145.494 C 1776.300 1146.325, 1770.225 1147.494, 1765 1148.091 C 1729.034 1152.201, 1702.167 1161.194, 1645 1188.257 C 1547.007 1234.647, 1514.736 1245.322, 1445 1254.419 C 1436.103 1255.580, 1398.659 1257.317, 1359.668 1258.379 C 1358.165 1258.420, 1357.946 1258.974, 1358.450 1261.464 C 1360.477 1271.489, 1362.008 1282.058, 1363.066 1293.337 C 1364.565 1309.326, 1363.766 1342.243, 1361.594 1353.941 C 1357.313 1376.991, 1347.488 1397.338, 1333.640 1411.826 C 1330.263 1415.360, 1319.625 1424.155, 1310 1431.371 C 1300.375 1438.587, 1291.939 1444.943, 1291.253 1445.496 C 1290.275 1446.282, 1290.881 1449.858, 1294.049 1462 C 1299.155 1481.573, 1301.426 1487.801, 1306.083 1495.006 C 1315.353 1509.349, 1332.469 1513.965, 1371.333 1512.602 C 1395.852 1511.742, 1410.028 1511.087, 1417.725 1510.458 C 1423.586 1509.979, 1423.976 1510.082, 1424.417 1512.225 C 1425.707 1518.496, 1428.152 1547.248, 1430.150 1579.635 L 1432.378 1615.771 1428.388 1620.635 C 1406.712 1647.062, 1389.731 1666.896, 1388.275 1667.488 C 1380.838 1670.507, 1370.715 1671.693, 1341.500 1672.968 C 1328.850 1673.520, 1313.775 1674.205, 1308 1674.490 C 1297.327 1675.018, 1263.294 1676.402, 1232.500 1677.559 L 1215.500 1678.198 1208.514 1670.849 C 1204.671 1666.807, 1177.446 1638.524, 1148.014 1607.997 C 1082.445 1539.991, 1061.707 1518.231, 1051.046 1506.251 C 1040.877 1494.824, 1038.265 1493.782, 1020.877 1494.216 L 1009.500 1494.500 1009.190 1498.795 C 1008.474 1508.728, 1018.585 1556.575, 1026.456 1580.500 C 1036.664 1611.529, 1056.906 1648.608, 1075.500 1670.335 C 1097.765 1696.353, 1146.446 1741.884, 1178.500 1766.671 C 1191.226 1776.511, 1229.496 1801.262, 1252 1814.207 C 1268.886 1823.920, 1300.689 1840.231, 1313.093 1845.540 C 1317.384 1847.377, 1323.281 1849.325, 1326.198 1849.869 C 1329.114 1850.414, 1336.565 1852.678, 1342.756 1854.902 C 1374.141 1866.174, 1423.316 1876.834, 1453.500 1878.908 C 1470.273 1880.061, 1537.649 1879.494, 1554.500 1878.059 C 1588.627 1875.152, 1638.406 1862.159, 1683.124 1844.485 C 1702.044 1837.007, 1735.446 1820.580, 1745.500 1813.809 C 1761.384 1803.110, 1795.306 1777.558, 1804.304 1769.513 C 1840.320 1737.313, 1894.518 1674.217, 1923.714 1630.500 C 1947.696 1594.592, 1980.623 1525.402, 1985.925 1499.779 L 1987.729 1491.059 1982.115 1491.533 C 1979.027 1491.793, 1956.925 1492.462, 1933 1493.019 C 1870.508 1494.473, 1860.123 1495.453, 1848.520 1500.991 C 1837.788 1506.112, 1835.877 1508.370, 1746.057 1622 C 1731.058 1640.975, 1718.195 1657.336, 1717.473 1658.359 C 1716.338 1659.965, 1714.076 1660.327, 1700.830 1661.025 C 1678.798 1662.184, 1663.315 1662.858, 1630.709 1664.074 L 1601.918 1665.148 1589.709 1655.389 C 1557.532 1629.667, 1512.768 1590.980, 1509.998 1586.497 C 1504.558 1577.695, 1505.222 1573.666, 1519.055 1531.530 L 1528.974 1501.318 1557.237 1500.624 C 1572.782 1500.242, 1586.850 1499.752, 1588.500 1499.534 C 1590.150 1499.316, 1594.302 1498.861, 1597.727 1498.522 C 1606.319 1497.672, 1612.922 1495.552, 1617.194 1492.274 C 1619.181 1490.748, 1626.106 1482.975, 1632.583 1475 C 1646.911 1457.357, 1681.165 1416.412, 1697 1398 C 1709.698 1383.235, 1749.243 1336.211, 1797.493 1278.500 C 1851.205 1214.256, 1866.314 1196.557, 1876.623 1185.807 C 1880.680 1181.576, 1884 1177.709, 1884 1177.212 C 1884 1173.374, 1857.071 1160.320, 1833.366 1152.667 C 1812.415 1145.904, 1786.413 1142.504, 1778.500 1145.494 M 2076 1215.020 C 2070.030 1216.411, 2060.837 1228.400, 2055.378 1241.915 L 2052.966 1247.888 2055.445 1260.194 C 2056.809 1266.962, 2060.637 1288.765, 2063.953 1308.644 C 2067.268 1328.523, 2070.255 1345.502, 2070.590 1346.374 C 2071.454 1348.626, 2077.276 1349.988, 2086.068 1349.994 C 2096.261 1350.002, 2103.717 1347.751, 2105.264 1344.198 C 2106.801 1340.668, 2106.715 1255.417, 2105.154 1235.046 C 2104.166 1222.157, 2103.800 1220.345, 2101.772 1218.317 C 2098.084 1214.629, 2084.912 1212.944, 2076 1215.020 M 1484.500 1257.172 C 1451.500 1264.336, 1424.097 1270.578, 1423.605 1271.044 C 1423.079 1271.541, 1423.219 1277.787, 1423.944 1286.195 C 1425.799 1307.677, 1430.953 1362.937, 1431.528 1367.500 C 1432.242 1373.162, 1435.780 1419.348, 1436.507 1432.500 C 1437.103 1443.268, 1439.144 1467.958, 1442.995 1511 C 1444.054 1522.825, 1445.397 1539.025, 1445.981 1547 C 1448.818 1585.742, 1449.037 1587, 1452.935 1587 C 1458.380 1587, 1482.201 1553.499, 1495.277 1527.450 C 1507.764 1502.572, 1526.380 1450.939, 1532.935 1423 C 1541.041 1388.447, 1551.691 1290.646, 1550.577 1261 C 1550.064 1247.359, 1549.278 1243.983, 1546.639 1244.074 C 1545.462 1244.115, 1517.500 1250.009, 1484.500 1257.172 M 817.584 1293.865 C 815.152 1297.799, 814.198 1337.443, 816.009 1359.300 C 817.163 1373.223, 817.684 1375.665, 819.662 1376.424 C 826.023 1378.865, 916.185 1380.477, 926.960 1378.342 C 931 1377.541, 931.486 1377.132, 932.134 1373.979 C 934.083 1364.498, 936.207 1295.873, 934.601 1294.267 C 934.290 1293.957, 907.993 1293.481, 876.163 1293.211 C 833.305 1292.847, 818.108 1293.017, 817.584 1293.865 M 1028.275 1293.893 C 1023.632 1295.108, 1020.274 1297.570, 1018.452 1301.093 C 1014.724 1308.302, 1006.795 1349.922, 1004.597 1373.826 L 1004.015 1380.152 1035.257 1379.532 C 1119.535 1377.858, 1132.980 1374.974, 1142.009 1356.633 C 1149.004 1342.425, 1147.607 1325.586, 1138.248 1311.266 C 1130.332 1299.155, 1125.575 1297.232, 1097 1294.588 C 1086.447 1293.612, 1031.475 1293.056, 1028.275 1293.893 M 1994.315 1305.802 C 1987.786 1312.991, 1973.231 1333.499, 1968.685 1341.917 C 1962.834 1352.750, 1964.066 1353.632, 1984.479 1353.213 C 2000.856 1352.878, 2010.985 1351.629, 2012.143 1349.803 C 2012.597 1349.086, 2012.976 1345.063, 2012.985 1340.862 C 2013.008 1329.434, 2007.071 1310.977, 2000.646 1302.500 C 1999.176 1300.560, 1998.985 1300.660, 1994.315 1305.802 M 836 1491.981 C 823.743 1492.996, 823.235 1493.250, 822.406 1498.777 C 822.020 1501.350, 821.991 1513.365, 822.341 1525.477 C 822.691 1537.590, 822.983 1549.188, 822.989 1551.250 L 823 1555 882.642 1555 L 942.283 1555 941.598 1542.750 C 940.843 1529.241, 938.285 1499.334, 937.453 1494.288 L 936.924 1491.076 890.712 1491.176 C 865.295 1491.231, 840.675 1491.594, 836 1491.981 M 2086.952 1496.488 C 2079.500 1497.162, 2072.492 1498.202, 2071.378 1498.798 C 2067.725 1500.752, 2064.418 1518.176, 2066.840 1522.701 C 2068.339 1525.502, 2076.405 1526.295, 2094.461 1525.417 L 2108.792 1524.721 2109.501 1511.979 C 2109.891 1504.971, 2109.907 1498.283, 2109.538 1497.118 C 2108.750 1494.637, 2107.733 1494.608, 2086.952 1496.488 M 2628.250 1578.118 C 2627.563 1578.823, 2627 1580.218, 2627 1581.218 C 2627 1585.852, 2641.702 1626.512, 2647.592 1638.169 C 2651.302 1645.510, 2659.422 1654.541, 2667.286 1660.072 C 2688.963 1675.318, 2779.336 1731.112, 2787.365 1734.205 C 2791.752 1735.895, 2792.456 1735.931, 2794.528 1734.574 C 2797.766 1732.452, 2798.286 1728.692, 2796.984 1716.839 C 2794.660 1695.687, 2789.602 1677.572, 2782.923 1666.487 C 2775.785 1654.639, 2763.926 1645.816, 2724.523 1623.043 C 2687.991 1601.928, 2656.911 1586, 2652.242 1586 C 2651.214 1586, 2647.305 1584.149, 2643.554 1581.887 C 2636.225 1577.467, 2630.307 1576.009, 2628.250 1578.118 M 1474.632 1635.178 C 1464.704 1645.204, 1439.494 1672.323, 1412.653 1701.850 L 1395.972 1720.201 1402.195 1727.350 C 1410.051 1736.376, 1464.590 1790.889, 1480.380 1805.498 L 1492.260 1816.490 1518.173 1789.995 C 1564.200 1742.934, 1587 1718.750, 1587 1716.990 C 1587 1713.491, 1538.843 1669.591, 1515.500 1651.811 C 1512.200 1649.298, 1504.550 1642.888, 1498.500 1637.567 C 1492.450 1632.246, 1486.681 1627.435, 1485.681 1626.875 C 1484.146 1626.015, 1482.421 1627.311, 1474.632 1635.178 M 41.726 1665.450 C 35.518 1667.973, 30.087 1671.947, 24.699 1677.912 C 19.402 1683.775, 17.626 1687.776, 17.559 1694 C 17.477 1701.637, 20.785 1707.922, 29.432 1716.561 C 37.891 1725.011, 44.387 1729.685, 65.350 1742.407 C 88.017 1756.163, 92.038 1758.979, 93.184 1761.902 C 95.150 1766.915, 96.936 1780.771, 99.485 1810.791 C 102.356 1844.600, 105.548 1870.680, 110.098 1897.500 C 129.664 2012.831, 172.023 2108.833, 241.418 2195.119 C 285.973 2250.521, 339.432 2304.050, 397.500 2351.406 C 427.145 2375.583, 480.658 2414.858, 501.500 2427.736 C 520.240 2439.314, 554.180 2456.407, 574.329 2464.413 C 599.579 2474.446, 643.790 2472.242, 685.716 2458.860 C 705.482 2452.551, 718 2446.206, 718 2442.497 C 718 2440.340, 711.032 2436.022, 693 2427.003 C 654.540 2407.767, 591.637 2370.961, 560 2349.181 C 518.607 2320.686, 479.151 2287.319, 441.999 2249.388 C 403.601 2210.187, 376.042 2175.671, 348.884 2132.770 C 343.220 2123.821, 330.728 2104.800, 321.126 2090.500 C 299.482 2058.269, 294.960 2050.852, 283.930 2029.500 C 269.852 2002.249, 257.208 1971.232, 246.627 1938 C 240.041 1917.314, 238.677 1911.762, 235.939 1894.500 C 230.335 1859.180, 227.874 1815.312, 229.767 1784.500 C 230.274 1776.250, 230.515 1769.050, 230.303 1768.500 C 229.531 1766.494, 175.825 1735.258, 131 1710.743 C 115.875 1702.471, 94.725 1690.450, 84 1684.029 C 60.777 1670.126, 51.065 1664.513, 48.904 1663.747 C 48.026 1663.436, 44.796 1664.202, 41.726 1665.450 M 2581.102 1685.836 C 2584.049 1713.303, 2589.010 1732.596, 2598.068 1751.825 C 2608.058 1773.032, 2616.087 1781.165, 2656.500 1811.012 C 2704.474 1846.443, 2715.512 1854.842, 2733.172 1869.352 C 2744.230 1878.437, 2746.649 1882.111, 2750.428 1895.557 C 2757.779 1921.713, 2757.646 1950.479, 2750.022 1983.500 C 2746.603 1998.306, 2741.147 2014, 2739.418 2014 C 2738.246 2014, 2734.638 2004.105, 2730.483 1989.496 C 2723.988 1966.660, 2718.877 1954.798, 2709.156 1940 C 2701.509 1928.360, 2675.424 1903.785, 2646.453 1880.924 C 2623.551 1862.854, 2620.565 1860.900, 2599.468 1850.180 C 2573.068 1836.767, 2563.228 1829.724, 2536.504 1805.118 C 2531.006 1800.056, 2525.490 1795.659, 2524.246 1795.347 C 2521.394 1794.631, 2517.508 1797.116, 2515.545 1800.913 C 2509.673 1812.268, 2511.930 1846.947, 2519.521 1862.015 C 2527.420 1877.695, 2551.936 1900.705, 2579.669 1918.471 C 2584.526 1921.582, 2600.200 1931.104, 2614.500 1939.632 C 2678.617 1977.867, 2696.377 1992.239, 2724.932 2029 C 2741.879 2050.817, 2759.197 2071.888, 2760.237 2071.953 C 2760.642 2071.979, 2761.607 2070.537, 2762.381 2068.750 C 2763.156 2066.963, 2768.270 2056.275, 2773.746 2045 C 2803.502 1983.733, 2809 1965.173, 2809 1926 C 2809 1895.574, 2806.945 1885.693, 2795.997 1863.464 C 2785.067 1841.272, 2763.231 1810.599, 2749.941 1798.766 C 2738.203 1788.316, 2582.300 1670, 2580.268 1670 C 2579.792 1670, 2580.168 1677.126, 2581.102 1685.836 M 290.136 1739.713 C 288.258 1751.776, 281.117 1805.181, 279.914 1816.164 C 279.271 1822.029, 279.053 1828.469, 279.429 1830.474 C 280.276 1834.987, 281.328 1835.477, 309.796 1844.613 C 342.081 1854.974, 341.612 1854.576, 340.678 1870.799 C 340.105 1880.755, 338.370 1889.506, 333.006 1909.500 C 331.591 1914.772, 330.823 1920.739, 330.752 1927 C 330.606 1939.889, 331.828 1942.139, 341.328 1946.478 C 352.627 1951.639, 391.912 1964.931, 403.282 1967.440 C 407.526 1968.377, 411.038 1963.738, 415.989 1950.654 C 418.310 1944.519, 422.844 1933.570, 426.065 1926.321 C 432.909 1910.919, 436 1899.785, 436 1890.534 C 436 1882.893, 434.455 1879.208, 429.751 1875.631 C 425.337 1872.275, 409.831 1864.740, 390.223 1856.424 C 374.704 1849.843, 373.969 1849.404, 374.434 1847.011 C 374.702 1845.630, 375.405 1838.425, 375.996 1831 C 376.587 1823.575, 377.775 1810.356, 378.635 1801.625 C 380.964 1777.994, 379.571 1771.982, 370.330 1765.776 C 367.070 1763.586, 301.453 1736.183, 293.192 1733.561 C 291.389 1732.989, 291.090 1733.590, 290.136 1739.713 M 2455.500 1973.067 C 2443.302 1975.542, 2419.916 1978.340, 2391 1980.782 L 2382.500 1981.500 2382.179 1987 C 2381.579 1997.267, 2386.631 2058.888, 2388.595 2065.250 C 2389.350 2067.697, 2392.429 2067.510, 2410.235 2063.936 C 2442.752 2057.408, 2465.323 2051.005, 2467.392 2047.719 C 2469.740 2043.990, 2471.093 2032.623, 2472.055 2008.530 C 2473.026 1984.214, 2472.487 1969.921, 2470.606 1970.113 C 2469.998 1970.175, 2463.200 1971.504, 2455.500 1973.067 M 2520 2049.507 C 2516.425 2050.232, 2509.787 2052.254, 2505.250 2054 C 2497.216 2057.092, 2497 2057.262, 2497 2060.488 C 2497 2070.094, 2502.136 2093.491, 2510.251 2120.850 C 2514.374 2134.750, 2515.805 2138.351, 2517.448 2138.958 C 2518.577 2139.374, 2525.453 2140.020, 2532.729 2140.393 C 2547.436 2141.147, 2559.022 2143.651, 2565.575 2147.491 C 2578.717 2155.193, 2591.016 2178.529, 2592.683 2198.926 C 2593.708 2211.463, 2588.593 2232.345, 2579.395 2253.173 C 2561.649 2293.353, 2560.934 2295.624, 2560.913 2311.865 C 2560.898 2324.112, 2561.946 2327.001, 2566.405 2326.999 C 2570.181 2326.998, 2580.447 2321.394, 2583.921 2317.437 C 2595.562 2304.179, 2610.375 2273.499, 2622.903 2236.704 C 2631.440 2211.628, 2632.328 2202.210, 2629.363 2168.196 C 2625.932 2128.834, 2616.721 2094.173, 2605.524 2078.481 C 2596.223 2065.447, 2575.737 2052.036, 2561.156 2049.435 C 2551.556 2047.723, 2528.594 2047.763, 2520 2049.507 M 2684.619 2054.024 C 2676.872 2056.371, 2673.942 2063.347, 2673.259 2081.069 C 2672.685 2095.957, 2673.595 2098.551, 2682.511 2107.467 C 2689.121 2114.078, 2693.006 2116.223, 2697.848 2115.937 C 2703.638 2115.594, 2703.702 2115.641, 2707.574 2123.010 C 2711.859 2131.163, 2716.813 2136, 2720.880 2136 C 2726.349 2136, 2729.474 2129.666, 2731.180 2115.118 C 2732.488 2103.978, 2731.209 2090.494, 2728.445 2086.276 C 2726.225 2082.888, 2721.284 2080.158, 2716.033 2079.420 C 2707.931 2078.282, 2706.020 2075.855, 2704.530 2064.820 C 2703.705 2058.706, 2700.916 2055.238, 2696.207 2054.470 C 2688.516 2053.215, 2687.427 2053.173, 2684.619 2054.024 M 2288.864 2084.128 C 2287.841 2085.942, 2287.527 2092.731, 2287.526 2113 C 2287.526 2143.225, 2288.879 2158.841, 2292.909 2175.120 C 2298.501 2197.709, 2305.616 2211.475, 2324.892 2237 C 2346.234 2265.262, 2360.260 2287.858, 2382.990 2330.603 C 2395.763 2354.622, 2420.373 2403.576, 2424.237 2412.648 C 2426.450 2417.847, 2427.389 2418.973, 2430.310 2419.937 C 2433.127 2420.867, 2434.528 2420.772, 2437.896 2419.425 C 2447.629 2415.531, 2449.331 2407.851, 2449.293 2368 C 2449.255 2327.379, 2447.350 2315.886, 2436.520 2290.937 C 2427.697 2270.609, 2411.522 2244.483, 2393.801 2221.938 C 2370.804 2192.679, 2364.089 2183.885, 2350.322 2165 C 2342.103 2153.725, 2326.014 2131.225, 2314.568 2115 C 2303.123 2098.775, 2292.957 2084.658, 2291.979 2083.628 C 2290.246 2081.804, 2290.167 2081.816, 2288.864 2084.128 M 640.881 2248.507 C 632.569 2250.163, 627.190 2252.881, 623.174 2257.455 C 617.689 2263.701, 616.692 2266.647, 616.209 2278.031 C 615.770 2288.353, 615.816 2288.628, 618.506 2291.825 C 620.016 2293.620, 623.107 2296.024, 625.376 2297.169 C 633.928 2301.486, 646.441 2310.319, 653.595 2317.090 C 662.931 2325.927, 666.106 2327.321, 677 2327.368 C 694.901 2327.444, 721 2316.158, 721 2308.340 C 721 2305.218, 716.511 2303.138, 701.855 2299.470 C 690.006 2296.504, 685.666 2294.323, 683.254 2290.120 C 681.214 2286.566, 676.404 2283.221, 671.368 2281.855 C 661.219 2279.102, 656.295 2271.938, 655.274 2258.441 C 654.848 2252.808, 654.184 2250.184, 652.844 2248.844 C 650.730 2246.730, 649.912 2246.707, 640.881 2248.507 M 2051.166 2303.813 C 2032.622 2315.111, 1989.569 2348.883, 1954.563 2379.590 C 1935.476 2396.333, 1928.140 2404.044, 1925.058 2410.600 C 1922.088 2416.919, 1918.572 2433.930, 1916.585 2451.597 C 1914.607 2469.186, 1914.521 2477, 1916.304 2477 C 1919.480 2477, 1930.302 2468.729, 1949.500 2451.628 C 1976.804 2427.306, 2050.256 2356.915, 2054.012 2351.472 C 2057.888 2345.853, 2059.691 2339.030, 2062.002 2321.242 C 2064.542 2301.687, 2064.582 2297.979, 2062.250 2298.063 C 2061.287 2298.097, 2056.300 2300.685, 2051.166 2303.813 M 228.018 2314.479 C 227.051 2315.644, 227.048 2317.076, 228.004 2321.229 C 229.724 2328.694, 240.494 2368.221, 244.699 2382.500 C 246.643 2389.100, 248.658 2396.075, 249.176 2398 C 252.456 2410.175, 255.330 2417.100, 258.057 2419.395 C 262.432 2423.075, 269.893 2425.548, 299.134 2433.009 C 327.747 2440.309, 332.969 2442.157, 337.267 2446.506 C 341.692 2450.985, 343.698 2460.884, 346.532 2492.226 C 347.229 2499.938, 347.236 2499.953, 350.365 2500.410 C 365.930 2502.683, 426.968 2506.385, 439.500 2505.817 L 446.500 2505.500 446.193 2493.500 C 445.289 2458.119, 442.599 2422.266, 440.707 2420.374 C 440.450 2420.116, 428.373 2416.320, 413.869 2411.937 C 364.189 2396.925, 358.903 2394.668, 354.280 2386.500 C 353.035 2384.300, 349.714 2375.300, 346.900 2366.500 C 344.087 2357.700, 340.552 2347.800, 339.045 2344.500 C 334.654 2334.883, 332.759 2333.580, 318.180 2330.144 C 297.280 2325.219, 235.200 2313, 231.076 2313 C 230.069 2313, 228.693 2313.665, 228.018 2314.479 M 2191.273 2329.914 C 2181.081 2332.517, 2166.029 2344.460, 2156.198 2357.746 C 2145.359 2372.393, 2132.007 2401.132, 2121.655 2432.097 C 2108.246 2472.204, 2107.162 2500.414, 2118.225 2521.314 C 2122.291 2528.995, 2133.059 2539.955, 2143 2546.533 C 2152.398 2552.750, 2160 2559.712, 2160 2562.100 C 2160 2564.624, 2152.463 2570.667, 2123.995 2590.969 C 2085.042 2618.750, 2062.661 2632.348, 2022 2652.939 C 1980.593 2673.907, 1959.758 2682.146, 1927.426 2690.336 C 1879.685 2702.428, 1839.124 2708.448, 1768 2713.996 C 1718.758 2717.837, 1703.644 2718.363, 1640.500 2718.433 C 1582.558 2718.497, 1576.978 2718.650, 1571 2720.336 C 1547.717 2726.906, 1527.648 2746.188, 1503.807 2784.897 C 1499.876 2791.278, 1489.839 2807.300, 1481.501 2820.500 C 1461.806 2851.683, 1455.107 2863.011, 1453.355 2868.095 C 1452.090 2871.768, 1452.107 2872.515, 1453.511 2874.657 C 1457.858 2881.292, 1478.285 2893, 1485.514 2893 C 1488.995 2893, 1490.174 2892.385, 1493.667 2888.750 C 1495.912 2886.412, 1501.029 2879.550, 1505.037 2873.500 C 1524.126 2844.682, 1533.010 2833.615, 1537.784 2832.700 C 1539.278 2832.414, 1546.125 2833.031, 1553 2834.073 C 1574.616 2837.347, 1611.192 2838.404, 1704.500 2838.454 C 1798.332 2838.503, 1804.854 2838.251, 1834.181 2833.438 C 1910.245 2820.955, 2004.116 2793.240, 2051.123 2769.387 C 2058.066 2765.864, 2070.100 2758.739, 2077.866 2753.554 C 2131.316 2717.872, 2226.821 2638.053, 2281.960 2582.981 C 2308.383 2556.591, 2318.695 2543.484, 2332.692 2518.500 C 2343.762 2498.741, 2357.066 2469.734, 2361.817 2455 C 2367.722 2436.683, 2377.992 2391.144, 2377.997 2383.250 C 2378 2378.559, 2374.997 2374.403, 2372.341 2375.423 C 2371.513 2375.740, 2370.250 2376, 2369.532 2376 C 2367.132 2376, 2352.314 2387.380, 2338.841 2399.570 C 2311.580 2424.234, 2295.194 2435.284, 2275.163 2442.509 C 2251.897 2450.902, 2212.191 2454.910, 2194 2450.702 C 2184.359 2448.471, 2176.773 2444.125, 2173.263 2438.821 C 2165.430 2426.985, 2172.590 2399.917, 2185.292 2393.349 C 2190.808 2390.497, 2194.259 2389.890, 2209.544 2389.084 C 2217.818 2388.648, 2225.554 2387.774, 2226.733 2387.143 C 2229.594 2385.612, 2230.437 2379.599, 2229.713 2365.879 C 2229.024 2352.823, 2227.251 2348.261, 2219.808 2340.390 C 2211.291 2331.385, 2200.716 2327.503, 2191.273 2329.914 M 956.500 2351.672 C 947.352 2352.806, 940.313 2354.263, 938.913 2355.311 C 936.293 2357.274, 935.223 2360.159, 934.089 2368.318 C 932.888 2376.948, 931.067 2381.271, 927.729 2383.410 C 925.241 2385.005, 915.348 2387.929, 904 2390.424 C 879.759 2395.754, 881.989 2401.953, 911 2409.890 C 930.161 2415.132, 956.499 2417.519, 963.282 2414.629 C 970.419 2411.588, 975.181 2402.582, 975.624 2391.286 C 975.800 2386.793, 976.508 2383.154, 977.501 2381.639 C 979.162 2379.104, 985.977 2375.743, 992 2374.488 C 996.821 2373.484, 1000.744 2371.346, 1001.970 2369.055 C 1003.185 2366.787, 1003.325 2356.060, 1002.164 2354.232 C 1000.602 2351.770, 994.327 2351.002, 977.007 2351.150 C 967.378 2351.232, 958.150 2351.467, 956.500 2351.672 M 1097 2364.828 C 1072.609 2376.069, 1051.051 2387.313, 1044.696 2392.107 C 1033.746 2400.368, 1025.056 2412.253, 1010.775 2438.500 C 1007.184 2445.100, 985.981 2486.950, 963.658 2531.500 C 910.146 2638.293, 887.842 2681.498, 879.387 2694.735 C 869.656 2709.972, 867.584 2717.578, 872.547 2719.839 C 878.461 2722.534, 886.661 2720.250, 906.341 2710.427 C 933.216 2697.013, 954.559 2682.433, 970.605 2666.526 C 986.539 2650.731, 996.868 2634.843, 1016.452 2596.006 C 1042.407 2544.532, 1066.371 2492.401, 1088.166 2440 C 1094.420 2424.965, 1105.609 2390.617, 1108.483 2377.634 C 1111.283 2364.986, 1111.411 2360.678, 1109 2360.253 C 1108.175 2360.108, 1102.775 2362.167, 1097 2364.828 M 1411.116 2425.538 C 1402.517 2429.522, 1391.011 2438.236, 1363 2461.981 C 1345.480 2476.833, 1338.081 2482.606, 1325.476 2491.259 C 1291.398 2514.655, 1251.081 2530.891, 1200.500 2541.587 C 1185.534 2544.752, 1187.672 2543.080, 1170.317 2565.203 C 1149.199 2592.121, 1132.652 2614.427, 1129.447 2620.294 C 1127.215 2624.378, 1127.025 2625.329, 1128.164 2626.716 C 1130.049 2629.014, 1143.392 2635.065, 1157.500 2640.020 C 1182.439 2648.779, 1204.172 2659.954, 1218.871 2671.577 C 1227.534 2678.427, 1232.477 2684.697, 1233.496 2690.128 C 1234.596 2695.992, 1233.162 2696.465, 1215.086 2696.195 C 1206.456 2696.067, 1198.519 2695.796, 1197.448 2695.594 C 1191.711 2694.510, 1136.976 2692.820, 1121.500 2693.248 C 1106.292 2693.669, 1102.182 2694.129, 1095 2696.216 C 1074.478 2702.179, 1051.907 2712.952, 1031.500 2726.525 C 1008.493 2741.827, 988.602 2751.469, 962.577 2759.936 C 942.472 2766.477, 934.697 2767.352, 896 2767.431 C 858.500 2767.508, 856.200 2767.233, 841.172 2760.873 C 818.801 2751.406, 792.325 2749.523, 773.351 2756.051 C 762.771 2759.691, 758.081 2766.967, 763.250 2771.721 C 766.584 2774.788, 779.676 2782.806, 795.500 2791.473 C 820.141 2804.970, 880.220 2834.505, 888.715 2837.298 C 898.360 2840.470, 906.328 2840.775, 917.792 2838.410 C 938.756 2834.085, 956.709 2825.093, 1003.384 2795.538 C 1028.293 2779.765, 1041.009 2775.034, 1064 2772.983 C 1094.352 2770.276, 1109.841 2768.715, 1125 2766.836 C 1155.949 2762.998, 1186.327 2764.150, 1214 2770.209 C 1227.335 2773.129, 1236.535 2772.955, 1246.500 2769.593 C 1274.667 2760.093, 1306.377 2738.658, 1336.080 2709.041 C 1347.085 2698.068, 1350.297 2694.201, 1353.017 2688.648 C 1357.228 2680.055, 1357.556 2672.321, 1354.050 2664.273 C 1351.020 2657.316, 1345.972 2652.888, 1331 2644.056 C 1324.125 2640.001, 1315.125 2634.427, 1311 2631.672 C 1298.664 2623.430, 1255.412 2592.201, 1254.034 2590.541 C 1252.995 2589.289, 1252.999 2588.707, 1254.055 2587.434 C 1256.467 2584.528, 1261.393 2582.697, 1266.330 2582.871 C 1277.182 2583.256, 1311.738 2574.621, 1324 2568.461 C 1334.015 2563.430, 1378.520 2519.456, 1392.825 2500.456 C 1405.162 2484.072, 1414.228 2464.086, 1419.538 2441.573 C 1421.082 2435.028, 1421.421 2427.160, 1420.235 2425.427 C 1418.711 2423.201, 1416.091 2423.233, 1411.116 2425.538 M 1146.391 2433.138 C 1131.818 2440.902, 1114.220 2454.956, 1096.926 2472.642 C 1084.126 2485.731, 1077 2494.941, 1077 2498.392 C 1077 2501.573, 1081.700 2506.735, 1089.307 2511.907 C 1093.263 2514.597, 1104.314 2522.650, 1113.865 2529.802 C 1123.415 2536.955, 1133.357 2543.965, 1135.956 2545.380 L 1140.683 2547.952 1145.480 2544.911 C 1155.931 2538.282, 1184.048 2514.905, 1198.750 2500.620 C 1209.583 2490.094, 1209.814 2489.230, 1204.493 2479.146 C 1199.232 2469.175, 1191.811 2459.733, 1179.542 2447.401 C 1168.356 2436.158, 1159.666 2430.027, 1154.891 2430.009 C 1153.456 2430.004, 1149.631 2431.412, 1146.391 2433.138 M 1481.667 2432.580 C 1476.934 2435.796, 1463.538 2452.537, 1452.523 2469 C 1443.209 2482.922, 1434.723 2497.900, 1421.310 2524.099 L 1412.299 2541.698 1411.628 2562.099 C 1410.207 2605.281, 1408.032 2664.959, 1407.513 2675 C 1407.214 2680.775, 1406.743 2689.775, 1406.466 2695 C 1406.189 2700.225, 1405.514 2715.075, 1404.966 2728 C 1404.417 2740.925, 1403.742 2754.425, 1403.465 2758 C 1402.300 2773.034, 1401.001 2802.355, 1401.001 2813.628 C 1401 2832.230, 1402.720 2832.201, 1421.081 2813.291 C 1437.984 2795.882, 1450.677 2779.855, 1469.255 2752.460 L 1476.010 2742.500 1476.947 2728.500 C 1477.463 2720.800, 1478.571 2704.825, 1479.411 2693 C 1481.876 2658.263, 1483.914 2625.020, 1484.989 2602 C 1485.541 2590.175, 1486.208 2576.900, 1486.472 2572.500 C 1487.642 2552.968, 1488.080 2543.964, 1489.001 2520.500 C 1489.541 2506.750, 1490.251 2490.100, 1490.577 2483.500 C 1490.904 2476.900, 1491.245 2463.384, 1491.336 2453.464 C 1491.479 2437.707, 1491.276 2435.085, 1489.727 2432.714 C 1487.529 2429.349, 1486.448 2429.331, 1481.667 2432.580 M 1735.303 2439.148 C 1727.425 2445.110, 1713.535 2457.142, 1696.576 2472.694 L 1684.652 2483.630 1669.076 2473.030 C 1651.821 2461.289, 1643.855 2456.327, 1636.752 2452.896 L 1632.004 2450.604 1628.390 2454.052 C 1621.104 2461.003, 1583.636 2506.623, 1575.447 2518.512 L 1571.713 2523.935 1574.379 2527.430 C 1579.393 2534.004, 1616.975 2567.433, 1627.654 2574.819 C 1629.389 2576.018, 1631.816 2577, 1633.048 2577 C 1634.659 2577, 1643.458 2568.719, 1664.394 2547.499 C 1682.443 2529.206, 1694.228 2517.999, 1695.417 2517.999 C 1697.970 2518, 1706.226 2522.613, 1728.217 2536.328 C 1747.224 2548.181, 1755.935 2553, 1758.352 2553 C 1761.993 2553, 1818.452 2486.585, 1817.779 2483.093 C 1817.186 2480.013, 1776.234 2451.178, 1766.242 2446.805 C 1763.634 2445.664, 1758.056 2442.316, 1753.848 2439.365 C 1749.639 2436.414, 1745.275 2434, 1744.151 2434 C 1743.026 2434, 1739.045 2436.317, 1735.303 2439.148 M 896.339 2487.752 C 894.601 2488.713, 890.830 2491.427, 887.959 2493.782 C 863.609 2513.758, 832.133 2518.217, 795.616 2506.862 C 783.298 2503.032, 768.951 2500.030, 762.881 2500.013 C 746.768 2499.967, 709.687 2511.218, 680.500 2525.008 C 639.044 2544.595, 596.947 2554.569, 570.500 2551.070 C 559.242 2549.581, 538.623 2545.089, 502 2536.146 C 448.673 2523.125, 439 2521.857, 439 2527.886 C 439 2532.984, 452.076 2551.448, 466.653 2566.933 C 475.765 2576.613, 495.511 2593.682, 507.500 2602.241 C 517.930 2609.687, 531.105 2615.749, 542.042 2618.132 C 549.837 2619.830, 556.347 2620.284, 579.061 2620.715 C 604.708 2621.202, 607.195 2621.093, 614.881 2619.149 C 626.205 2616.286, 637.072 2610.935, 668.769 2592.615 L 695.924 2576.920 712.373 2580.458 C 737.637 2585.891, 742.600 2586.430, 767.500 2586.440 C 799.721 2586.453, 815.234 2583.699, 834.585 2574.529 C 863.103 2561.017, 912.098 2522.967, 919.845 2508.316 C 923.298 2501.785, 918.892 2494.101, 908.804 2489.060 C 901.700 2485.510, 900.600 2485.394, 896.339 2487.752 M 1275.654 2784.552 C 1266.705 2787.833, 1243.444 2807.975, 1223.603 2829.622 C 1209.920 2844.551, 1206.592 2849.138, 1207.460 2851.873 C 1209.150 2857.197, 1243.614 2886.576, 1258.938 2895.754 C 1266.675 2900.388, 1270.491 2900.998, 1274.785 2898.285 C 1284.623 2892.069, 1300.725 2878.728, 1320.738 2860.215 C 1334.836 2847.173, 1338.414 2842.787, 1337.601 2839.546 C 1336.349 2834.557, 1306.877 2797.530, 1297.223 2788.817 C 1290.986 2783.188, 1283.441 2781.696, 1275.654 2784.552" stroke="none" fill="#24448c" fill-rule="evenodd"/></svg>